<?xml version="1.0" encoding="UTF-8" standalone="no"?>
<svg
   xmlns:dc="http://purl.org/dc/elements/1.1/"
   xmlns:cc="http://creativecommons.org/ns#"
   xmlns:rdf="http://www.w3.org/1999/02/22-rdf-syntax-ns#"
   xmlns:svg="http://www.w3.org/2000/svg"
   xmlns="http://www.w3.org/2000/svg"
   xmlns:sodipodi="http://sodipodi.sourceforge.net/DTD/sodipodi-0.dtd"
   xmlns:inkscape="http://www.inkscape.org/namespaces/inkscape"
   version="1.1"
   id="svg2"
   xml:space="preserve"
   width="881.40002"
   height="881.40002"
   viewBox="0 0 881.40002 881.40002"
   sodipodi:docname="clouds.svg"
   inkscape:version="1.0.1 (1.0.1+r75)"><metadata
     id="metadata8"><rdf:RDF><cc:Work
         rdf:about=""><dc:format>image/svg+xml</dc:format><dc:type
           rdf:resource="http://purl.org/dc/dcmitype/StillImage" /><dc:title></dc:title></cc:Work></rdf:RDF></metadata><defs
     id="defs6" /><sodipodi:namedview
     pagecolor="#ffffff"
     bordercolor="#666666"
     borderopacity="1"
     objecttolerance="10"
     gridtolerance="10"
     guidetolerance="10"
     inkscape:pageopacity="0"
     inkscape:pageshadow="2"
     inkscape:window-width="1920"
     inkscape:window-height="1027"
     id="namedview4"
     showgrid="false"
     inkscape:zoom="0.96097116"
     inkscape:cx="440.70001"
     inkscape:cy="440.70001"
     inkscape:window-x="0"
     inkscape:window-y="0"
     inkscape:window-maximized="1"
     inkscape:current-layer="g10" /><g
     id="g10"
     inkscape:groupmode="layer"
     inkscape:label="ink_ext_XXXXXX"
     transform="matrix(1.3333333,0,0,-1.3333333,0,881.4)"><path
       d="M 0,0 H 661.046 V 661.046 H 0 V 0"
       style="fill:#a4e2f6;fill-opacity:1;fill-rule:evenodd;stroke:none;stroke-width:0.1"
       id="path14" /><path
       d="m 408.196,365.517 c 2.027,0 3.976,-0.329 5.799,-0.937 5.675,8.675 15.476,14.409 26.618,14.409 12.262,0 22.899,-6.943 28.201,-17.112 2.218,1.116 4.724,1.746 7.373,1.746 3.159,0 6.107,-0.892 8.61,-2.436 4.416,6.309 11.736,10.435 20.019,10.435 12.43,0 22.69,-9.287 24.222,-21.3 l 31.983,-3.119 -31.983,-3.118 c -1.532,-12.014 -11.792,-21.299 -24.222,-21.299 -8.283,0 -15.603,4.126 -20.019,10.435 -2.503,-1.545 -5.451,-2.436 -8.61,-2.436 -2.649,0 -5.155,0.629 -7.373,1.745 -5.302,-10.17 -15.939,-17.114 -28.201,-17.114 -11.142,0 -20.943,5.735 -26.618,14.412 -1.823,-0.608 -3.772,-0.939 -5.799,-0.939 -9.049,0 -16.565,6.564 -18.048,15.189 l -32.052,3.125 32.052,3.127 c 1.483,8.624 8.999,15.187 18.048,15.187"
       style="fill:#ffffff;fill-opacity:1;fill-rule:evenodd;stroke:none;stroke-width:0.1"
       id="path16" /><path
       d="m 93.5629,582.3 c 2.7039,0 5.2539,-0.657 7.4991,-1.82 4.4,5.829 11.386,9.597 19.252,9.597 9.116,0 17.05,-5.061 21.146,-12.525 1.969,1.14 4.254,1.793 6.693,1.793 6.371,0 11.702,-4.454 13.047,-10.418 l 20.392,-2.957 -20.392,-2.957 c -1.345,-5.964 -6.676,-10.419 -13.047,-10.419 -2.439,0 -4.724,0.654 -6.693,1.794 -4.096,-7.465 -12.03,-12.525 -21.146,-12.525 -7.866,0 -14.852,3.768 -19.252,9.597 -2.2452,-1.163 -4.7952,-1.821 -7.4991,-1.821 -8.0125,0 -14.6762,5.771 -16.0641,13.383 l -20.3289,2.948 20.3289,2.948 c 1.3879,7.611 8.0516,13.382 16.0641,13.382"
       style="fill:#ffffff;fill-opacity:1;fill-rule:evenodd;stroke:none;stroke-width:0.1"
       id="path64" /><path
       d="m 124.326,255.92 c 4.52,0 8.677,-1.551 11.97,-4.148 5.85,13.31 19.15,22.61 34.623,22.61 11.252,0 21.354,-4.919 28.279,-12.72 5.758,4.916 13.227,7.885 21.391,7.885 10.329,0 19.548,-4.753 25.593,-12.189 6.464,8.98 17.005,14.827 28.913,14.827 9.351,0 17.861,-3.608 24.214,-9.506 3.247,1.309 6.795,2.033 10.51,2.033 14.555,0 26.527,-11.054 27.985,-25.224 l 36.794,-2.91 -36.794,-2.908 c -1.458,-14.17 -13.43,-25.222 -27.985,-25.222 -3.715,0 -7.263,0.722 -10.51,2.031 -6.353,-5.896 -14.863,-9.503 -24.214,-9.503 -11.908,0 -22.449,5.846 -28.913,14.824 -6.045,-7.437 -15.264,-12.187 -25.593,-12.187 -8.164,0 -15.633,2.969 -21.391,7.884 -6.925,-7.802 -17.027,-12.719 -28.279,-12.719 -15.473,0 -28.774,9.296 -34.623,22.611 -3.293,-2.599 -7.45,-4.15 -11.97,-4.15 -9.691,0 -17.717,7.128 -19.122,16.425 l -36.8657,2.914 36.8657,2.915 c 1.405,9.3 9.431,16.427 19.122,16.427"
       style="fill:#ffffff;fill-opacity:1;fill-rule:evenodd;stroke:none;stroke-width:0.1"
       id="path66" /><path
       d="m 502.067,217.723 c 3.922,0 7.619,-0.953 10.877,-2.64 6.381,8.451 16.51,13.916 27.919,13.916 13.22,0 24.724,-7.338 30.666,-18.162 2.855,1.652 6.17,2.601 9.707,2.601 9.239,0 16.969,-6.46 18.92,-15.11 l 29.574,-4.288 -29.574,-4.288 c -1.951,-8.649 -9.681,-15.109 -18.92,-15.109 -3.537,0 -6.852,0.946 -9.707,2.599 -5.942,-10.825 -17.446,-18.163 -30.666,-18.163 -11.409,0 -21.538,5.465 -27.919,13.918 -3.258,-1.686 -6.955,-2.64 -10.877,-2.64 -11.618,0 -21.283,8.369 -23.297,19.407 l -29.48,4.276 29.48,4.275 c 2.014,11.04 11.679,19.408 23.297,19.408"
       style="fill:#ffffff;fill-opacity:1;fill-rule:evenodd;stroke:none;stroke-width:0.1"
       id="path68" /><path
       d="m 441.709,617.542 c 1.192,0 2.339,-0.195 3.411,-0.552 3.338,5.103 9.102,8.475 15.654,8.475 7.211,0 13.469,-4.084 16.586,-10.065 1.305,0.657 2.776,1.028 4.336,1.028 1.856,0 3.591,-0.525 5.062,-1.433 2.598,3.71 6.903,6.137 11.775,6.137 7.31,0 13.342,-5.461 14.244,-12.527 l 18.81,-1.834 -18.81,-1.834 c -0.902,-7.064 -6.934,-12.526 -14.244,-12.526 -4.872,0 -9.177,2.427 -11.775,6.137 -1.471,-0.908 -3.206,-1.433 -5.062,-1.433 -1.56,0 -3.031,0.37 -4.336,1.027 -3.117,-5.981 -9.375,-10.064 -16.586,-10.064 -6.552,0 -12.316,3.372 -15.654,8.475 -1.072,-0.358 -2.219,-0.552 -3.411,-0.552 -5.321,0 -9.741,3.86 -10.613,8.932 l -18.85,1.838 18.85,1.838 c 0.872,5.073 5.292,8.933 10.613,8.933"
       style="fill:#ffffff;fill-opacity:1;fill-rule:evenodd;stroke:none;stroke-width:0.1"
       id="path70" /></g></svg>
